<svg width="612" height="573" viewBox="0 0 612 573" fill="none" xmlns="http://www.w3.org/2000/svg">
<g clip-path="url(#clip0_111_100)">
<path d="M363.198 273.254V565.728" stroke="#2A272D" stroke-width="1.9882" stroke-miterlimit="10"/>
<path d="M575.04 273.254V565.728" stroke="#2A272D" stroke-width="1.9882" stroke-miterlimit="10"/>
<path d="M237.95 363.581C237.95 363.581 278.599 354.378 284.719 380.805C290.005 403.482 234.716 402.614 234.716 402.614L113.151 403.343C113.151 403.343 67.3551 408.622 44.7181 355.871C22.0811 303.119 0.278556 164.974 0.278556 164.974C0.278556 164.974 -2.99009 145.979 12.8663 143.2C31.5045 139.936 35.1556 180.15 35.1556 180.15C35.1556 180.15 63.3215 350.662 104.214 358.997C110.508 360.282 115.515 365.039 121.948 364.97L237.95 363.581Z" fill="#FFEEE3"/>
<path d="M345.988 225.851L384.378 223.212C387.507 223.003 390.498 224.427 392.271 226.962L413.726 259.363L395.47 260.231L385.177 244.43C385.177 244.43 355.516 251.827 344.562 244.43L345.988 225.851Z" fill="#F2C09E"/>
<path d="M191.354 120.871L242.643 216.058L349.223 219.461V254.467L236.663 259.398C221.78 260.058 207.662 252.939 199.317 240.61L148.096 148.757L191.354 120.871Z" fill="#EFC375"/>
<path d="M349.229 219.427V254.432L337.336 254.953V219.045L349.229 219.427Z" fill="#F7E5DA"/>
<path d="M293.395 501.587L299.411 543.676L329.732 541.801L325.386 498.357L293.395 501.587Z" fill="#FCC9A7"/>
<path d="M292.624 539.405C293.284 537.425 295.649 536.627 297.353 537.842C300.691 540.204 306.568 543.016 315.018 541.94C323.815 540.829 326.909 536.14 327.987 532.841C328.544 531.105 330.422 530.167 332.126 530.827L386.787 552.219C390.126 553.504 392.768 556.074 394.194 559.338C395.515 562.394 393.325 565.832 389.952 565.902L297.387 567.256C293.736 567.325 290.815 564.304 290.954 560.658L291.615 542.808C291.615 542.496 291.685 542.218 291.789 541.94L292.624 539.405Z" fill="#1F252A"/>
<path d="M201.282 112.71L209.975 126.636C210.531 127.955 210.775 131.15 208.375 132.331L205.003 134.762L197.77 123.719L201.282 112.71Z" fill="#FFEEE3"/>
<path d="M185.077 127.434L182.33 126.114C173.289 121.704 169.533 110.799 173.949 101.77L203.297 41.7616L235.88 57.6667L201.976 124.864C198.36 132.33 192.553 131.08 185.077 127.434Z" fill="#FCC9A7"/>
<path d="M260.182 69.5091C250.62 89.0258 227.009 97.152 207.467 87.602C187.924 78.052 179.788 54.5069 189.35 34.9554C198.913 15.4388 222.488 7.31263 242.066 16.8626C261.643 26.4126 269.745 49.9923 260.182 69.5091Z" fill="#FCC9A7"/>
<path d="M212.605 108.334C203.321 103.819 199.461 92.6024 204.016 83.3302L220.568 49.4711L260.487 68.9531L246.996 96.5613C240.736 109.271 225.332 114.585 212.605 108.334Z" fill="#FCC9A7"/>
<path d="M255.309 76.9063L257.466 92.0474C257.639 94.4436 255.101 96.0063 252.875 94.9298L243.069 92.2558L255.309 76.9063Z" fill="#FCC9A7"/>
<path d="M220.753 69.3354C220.753 69.3354 234.558 70.2383 236.818 48.9505C236.818 48.9505 260.811 64.2305 270.582 58.1532C270.582 58.1532 273.573 -2.06376 223.743 0.0546086C173.914 2.17297 170.02 55.896 170.02 55.896L197.977 81.108L220.753 69.3354Z" fill="#1C2226"/>
<path d="M222.737 70.204C220.129 75.5867 213.626 77.8092 208.236 75.17C202.881 72.5307 200.621 66.0714 203.264 60.6887C205.872 55.306 212.374 53.0834 217.764 55.7227C223.119 58.362 225.345 64.8212 222.737 70.204Z" fill="#FCC9A7"/>
<path d="M192.3 62.2167L184.893 79.4761C184.893 79.4761 201.167 92.4989 209.373 75.7256L197.551 72.3918L192.3 62.2167Z" fill="#1C2226"/>
<path d="M236.808 48.9509C236.808 48.9509 269.32 74.024 282.151 53.014C292.375 36.2407 281.004 25.3711 264.591 28.0798C257.498 29.2605 253.986 24.4682 248.422 20.6829L236.808 48.9509Z" fill="#1C2226"/>
<path d="M207.604 143.165C207.604 143.165 206.874 127.851 202.006 122.537C197.137 117.224 171.197 102.569 171.197 102.569C171.197 102.569 133.886 113.369 110.971 155.945C93.1321 189.109 76.3369 273.045 76.3369 273.045L183.993 288.638C193.278 225.921 210.664 197.34 207.604 143.165Z" fill="#FFD686"/>
<path d="M173.01 99.618L168.524 101.632C166.925 102.361 166.577 104.515 167.898 105.695L196.342 130.977C197.49 132.019 199.298 131.706 200.098 130.386L203.297 124.865C203.888 123.823 203.645 122.503 202.706 121.739L175.513 100C174.818 99.3749 173.844 99.236 173.01 99.618Z" fill="#FFEEE3"/>
<path d="M334.13 231.547L372.52 228.907C375.65 228.699 378.64 230.123 380.414 232.658L400.095 260.613L381.7 262.975L373.32 250.091C373.32 250.091 343.658 257.488 332.704 250.091L334.13 231.547Z" fill="#FCC9A7"/>
<path d="M169.553 127.955L227.484 225.573L337.366 228.595V260.162L218.791 265.336C207.664 265.822 197.058 260.509 190.799 251.272L126.296 155.841L169.553 127.955Z" fill="#FFD686"/>
<path d="M337.371 228.595V260.127L325.478 260.648V228.595H337.371Z" fill="#FFEEE3"/>
<path d="M76.331 273.046L288.097 303.71C304.301 306.071 316.819 319.163 318.384 335.451L334.171 515.582L286.88 518.638L264.139 362.504L131.167 365.942C95.0731 365.942 67.3944 333.923 72.6451 298.258L76.331 273.046Z" fill="#54585A"/>
<path d="M451.663 259.398H339.971V266.621H451.663V259.398Z" fill="#2A272D"/>
<path d="M451.691 266.621L487.82 161.224L480.239 159.418L444.806 260.648L451.691 266.621Z" fill="#2A272D"/>
<path d="M210.835 107.362C210.835 107.362 200.785 101.423 200.785 88.9216C200.785 88.9216 194.526 102.465 207.288 114.377L210.835 107.362Z" fill="#F2C09E"/>
<path d="M45.9685 572.535C47.6376 572.535 49.1676 571.389 49.6196 569.687L104.908 351.982C109.498 333.957 125.668 321.351 144.306 321.351C162.388 321.351 178.453 333.471 183.39 350.836C202.724 418.866 247.72 567.291 248.172 568.784C248.763 570.764 250.884 571.91 252.866 571.284C254.848 570.694 255.996 568.576 255.37 566.596C254.918 565.103 209.922 416.748 190.623 348.787C184.781 328.193 165.726 313.815 144.271 313.815C122.19 313.815 102.996 328.748 97.5712 350.106L42.2826 567.847C41.761 569.861 42.9781 571.91 44.9949 572.43C45.3426 572.5 45.6556 572.535 45.9685 572.535Z" fill="#1F252A"/>
<path d="M190.84 251.237L157.632 202.168" stroke="#EFC375" stroke-width="0.7847" stroke-miterlimit="10" stroke-linecap="round" stroke-linejoin="round"/>
<path d="M611.617 266.621H322.273V279.643H611.617V266.621Z" fill="#FFEEE3"/>
<path d="M363.198 311.28H575.033" stroke="#2A272D" stroke-width="1.9882" stroke-miterlimit="10"/>
<path d="M210.312 194.215L178.495 142.992" stroke="#EFC375" stroke-width="0.7847" stroke-miterlimit="10" stroke-linecap="round" stroke-linejoin="round"/>
</g>
<defs>
<clipPath id="clip0_111_100">
<rect width="612" height="573" fill="white"/>
</clipPath>
</defs>
</svg>
