<svg width="490" height="879" viewBox="0 0 490 879" fill="none" xmlns="http://www.w3.org/2000/svg">
<path d="M141.362 807.283L122.751 850.036L92.4088 834.629L110.925 792.686L141.362 807.283Z" fill="#FCC9A7"/>
<path d="M132.966 847.513C132.966 844.945 130.658 843.279 128.349 844.225C123.826 846.072 116.382 847.648 107.477 843.819C98.2421 839.855 96.546 833.322 96.4989 829.042C96.4989 826.79 94.8027 825.078 92.6825 825.393L24.9776 834.719C20.8785 835.304 17.0152 837.557 14.2825 841.071C11.6911 844.36 12.9161 849.135 16.544 850.216L117.607 879.59C121.564 880.761 125.899 878.013 127.077 873.598L132.778 851.973C132.872 851.613 132.919 851.253 132.919 850.892L132.966 847.513Z" fill="#1F252A"/>
<path d="M415.711 703.575L458.115 725.921L438.844 753.086L397.242 730.921L415.711 703.575Z" fill="#FCC9A7"/>
<path d="M456.606 715.919C453.92 715.649 451.941 717.676 452.648 719.929C454.061 724.389 454.909 731.687 449.962 739.706C444.827 748.041 437.854 748.987 433.378 748.491C431.022 748.266 429.09 749.663 429.137 751.69L431.446 817.059C431.587 821.023 433.519 824.943 436.864 827.916C439.974 830.709 445.109 830.124 446.617 826.745L488.125 733.895C489.774 730.246 487.371 725.831 482.942 724.254L461.082 716.46C460.705 716.325 460.328 716.235 459.951 716.19L456.606 715.919Z" fill="#1F252A"/>
<path d="M163.781 394.256L180.13 494.539L262.77 636.584L405.059 754.889L438.228 698.8L325.387 598.156L259.19 395.968L163.781 394.256Z" fill="#092330"/>
<path d="M298.069 388.534C298.069 388.534 314.512 418.268 288.976 465.751L209.68 610.455L149.231 829.763L89.2064 809.716L132.317 587.929L208.738 414.844L163.79 394.256L298.069 388.534Z" fill="#0C2C40"/>
<path d="M125.193 106.38C135.653 117.327 153.415 118.093 164.817 108.137C176.266 98.1355 177.067 81.1513 166.655 70.2039C156.195 59.2565 138.48 58.4906 126.984 68.4469C115.534 78.4933 114.734 95.4325 125.193 106.38Z" fill="#FCC9A7"/>
<path d="M102.77 120.165L127.176 92.0532L146.635 110.749L123.737 137.555L102.77 120.165Z" fill="#FCC9A7"/>
<path d="M157.848 54.3464L135.468 82.9988C132.547 86.7381 132.641 91.919 135.704 95.523L153.843 116.922C158.083 121.923 165.999 121.968 170.286 117.057L195.587 88.2698C199.074 84.3053 198.885 78.4487 195.163 74.6644L174.103 53.4003C169.58 48.8502 161.805 49.2556 157.848 54.3464Z" fill="#1C2226"/>
<path d="M180.98 155.35L92.2618 197.924L140.979 126.067L108.846 99.4875L7.26566 232.568C-1.96895 244.011 1.61182 260.68 14.8512 267.663C21.5887 271.222 29.6926 271.582 36.7599 268.609L168.306 218.647L180.98 155.35Z" fill="#F7ECE7"/>
<path d="M149.223 196.212C149.223 196.212 164.913 313.84 163.782 394.256C163.782 394.256 210.85 414.078 310.641 385.111L285.952 166.388L237.895 150.935L180.979 155.35L149.223 196.212Z" fill="#F7ECE7"/>
<path d="M197.097 143.907L198.322 151.566C198.416 152.107 198.228 152.692 197.804 153.098L185.506 165.576C184.376 166.703 182.397 166.072 182.208 164.541L180.936 155.35C180.842 154.765 181.078 154.179 181.549 153.774L193.846 142.826C195.024 141.835 196.908 142.42 197.097 143.907Z" fill="#FCF3F0"/>
<path d="M213.537 163.684C228.143 162.558 239.027 150.259 237.849 136.293L234.315 95.387L181.358 99.5317L192.288 156.071C194.032 163.279 198.884 164.811 213.537 163.684Z" fill="#FCC9A7"/>
<path d="M236.095 109.714C236.095 109.714 224.693 140.709 201.56 136.879C180.311 133.365 181.347 99.5326 181.347 99.5326L236.095 109.714Z" fill="#F4BE9A"/>
<path d="M205.244 125.617L209.955 125.121C233.419 122.688 250.427 102.506 247.883 80.0701L245.009 54.4816C242.465 32.046 221.357 15.7825 197.894 18.2152L193.182 18.7108C169.719 21.1435 152.71 41.3264 155.254 63.7621L158.128 89.3506C160.672 111.831 181.78 128.049 205.244 125.617Z" fill="#FCC9A7"/>
<path d="M205.244 125.617L209.955 125.121C233.419 122.688 250.427 102.506 247.883 80.0701L245.009 54.4816C242.465 32.046 221.357 15.7825 197.894 18.2152L193.182 18.7108C169.719 21.1435 152.71 41.3264 155.254 63.7621L158.128 89.3506C160.672 111.831 181.78 128.049 205.244 125.617Z" fill="#FCC9A7"/>
<path d="M246.938 71.9604C243.734 71.6451 230.307 81.3761 226.82 77.1413C222.014 71.2847 217.633 60.6076 223.852 49.525C224.889 47.6779 225.172 45.5155 224.512 43.4884C223.287 39.8392 219.989 35.6044 210.896 38.6679C196.337 43.5784 163.591 59.3462 154.121 36.7757C142.154 8.3485 236.291 16.2775 236.291 16.2775L257.728 45.921L248.54 88.1788L246.938 71.9604Z" fill="#1C2226"/>
<path d="M233.843 76.2407C234.738 84.2598 242.277 90.0714 250.663 89.1704C259.05 88.3144 265.128 81.1062 264.185 73.0872C263.29 65.0681 255.752 59.2565 247.365 60.1575C238.979 61.0585 232.948 68.2217 233.843 76.2407Z" fill="#FCC9A7"/>
<path d="M208.727 172.38L220.741 349.475L198.361 369.568L185.075 350.106L198.361 168.866L208.727 172.38Z" fill="#0C2C40"/>
<path d="M190.817 160.171L192.655 157.738L192.184 155.621H218.662L220.736 162.243L203.114 177.11L190.817 160.171Z" fill="#0C2C40"/>
<path d="M236.15 133.905L211.085 150.214C208.258 152.061 207.881 155.936 210.331 158.233L230.025 176.749C232.24 178.821 235.868 178.731 237.941 176.479L257.776 155.169C259.708 153.097 259.614 149.899 257.541 147.962L243.029 134.401C241.192 132.734 238.318 132.509 236.15 133.905Z" fill="#FCF3F0"/>
<path d="M129.949 142.331L92.4456 120.706" stroke="#EADDD8" stroke-width="0.7599" stroke-miterlimit="10" stroke-linecap="round" stroke-linejoin="round"/>
<path d="M198.269 312.172L185.124 446.56C184.606 451.605 188.234 456.2 193.464 457.191L354.645 486.655C360.582 487.736 366.189 483.771 366.848 478.05L381.595 350.331C382.161 345.375 378.769 340.78 373.68 339.609L210.896 303.523C204.819 302.126 198.882 306.226 198.269 312.172Z" fill="#AFAFAF"/>
<path d="M209.71 314.56L196.564 448.947C196.093 453.993 199.674 458.588 204.904 459.579L366.086 489.042C372.022 490.124 377.629 486.159 378.288 480.438L393.036 352.718C393.601 347.763 390.209 343.168 385.12 341.996L222.337 305.865C216.212 304.514 210.275 308.613 209.71 314.56Z" fill="#D1D1D1"/>
<path d="M270.539 438.225C257.582 426.872 237.417 427.728 225.544 440.117C213.671 452.506 214.566 471.788 227.523 483.141C240.479 494.493 260.645 493.638 272.518 481.248C284.391 468.814 283.496 449.578 270.539 438.225Z" fill="#FCC9A7"/>
<path d="M294.431 420.475L269.836 454.623L245.902 435.342L268.894 402.86L294.431 420.475Z" fill="#FCC9A7"/>
<path d="M286.001 166.387C286.001 166.387 322.044 169.856 332.504 226.215L373.965 308.568C375.096 312.173 375.85 315.867 376.227 319.561L289.016 439.352L249.675 417.051L320.207 308.929L277.379 244.1L286.001 166.387Z" fill="#F7ECE7"/>
<path d="M262.484 400.878L302.202 421.241" stroke="#EADDD8" stroke-width="0.7599" stroke-miterlimit="10" stroke-linecap="round" stroke-linejoin="round"/>
<path d="M298.352 275.862L272.956 233.604" stroke="#EADDD8" stroke-width="0.7599" stroke-miterlimit="10" stroke-linecap="round" stroke-linejoin="round"/>
<path d="M163.823 46.8224C145.825 39.0285 149.594 18.9357 153.693 12.5836C153.693 12.5836 154.494 23.8914 162.55 21.2784C162.55 21.2784 161.467 4.42934 185.072 0.0593872C185.072 0.0593872 176.355 15.1965 207.404 12.3132C245.521 8.75422 247.735 31.8204 245.615 60.4729L233.93 52.4538L224.884 32.4962H194.024L163.823 46.8224Z" fill="#1C2226"/>
</svg>
