<svg width="366" height="794" viewBox="0 0 366 794" fill="none" xmlns="http://www.w3.org/2000/svg">
<g clip-path="url(#clip0_104_145)">
<path d="M117.358 354.162C128.254 347.609 142.431 351.095 148.994 362.018C155.557 372.899 152.065 387.057 141.127 393.61C130.231 400.164 116.054 396.677 109.491 385.754C102.928 374.915 106.462 360.758 117.358 354.162Z" fill="#FCC9A7"/>
<path d="M143.476 355.801C142.719 355.213 102.249 307.741 102.249 307.741L85.7156 327.738L122.231 373.908L143.476 355.801Z" fill="#FCC9A7"/>
<path d="M109.357 725.913L99.0501 772.923L66.4888 768.05L77.006 721.67L109.357 725.913Z" fill="#FCC9A7"/>
<path d="M255.327 721.712L255.706 769.857L222.935 772.293L222.851 724.737L255.327 721.712Z" fill="#FCC9A7"/>
<path d="M103.168 765.277C102.495 763.303 100.097 762.463 98.372 763.723C95.0064 766.16 89.0747 769.016 80.4926 768.008C71.574 766.958 68.3768 762.253 67.283 758.892C66.694 757.127 64.8009 756.203 63.0761 756.875L7.83972 778.973C4.4742 780.317 1.78169 782.922 0.393417 786.241C-0.95279 789.349 1.31906 792.836 4.72666 792.836L98.5823 793.508C102.284 793.55 105.229 790.484 105.061 786.787L104.262 768.68C104.262 768.386 104.177 768.092 104.093 767.798L103.168 765.277Z" fill="#0C0C0C"/>
<path d="M219.607 765.277C220.28 763.303 222.72 762.463 224.403 763.723C227.768 766.16 233.7 769.016 242.282 768.008C251.201 766.958 254.356 762.253 255.492 758.892C256.081 757.127 257.974 756.203 259.698 756.875L314.935 778.973C318.301 780.317 320.993 782.922 322.381 786.241C323.727 789.349 321.456 792.836 318.048 792.836L224.192 793.508C220.49 793.55 217.545 790.484 217.714 786.787L218.513 768.68C218.513 768.386 218.597 768.092 218.681 767.798L219.607 765.277Z" fill="#0C0C0C"/>
<path d="M219.19 118.148L190.036 120.668L143.675 146.757V332.276H267.401V146.757L219.19 118.148Z" fill="#54585A"/>
<path d="M211.204 136.842H202.833C194.167 136.842 187.141 129.827 187.141 121.172V89.7485H226.854V121.172C226.897 129.827 219.871 136.842 211.204 136.842Z" fill="#FCC9A7"/>
<path d="M187.141 105.755C187.141 105.755 193.325 118.148 207.377 118.148C221.428 118.148 226.854 105.502 226.854 105.502L187.141 105.755Z" fill="#F4BE9A"/>
<path d="M207.46 110.88H206.156C185.921 110.88 169.261 94.9158 168.462 74.7087L167.747 54.5856C166.906 33.2024 184.027 15.4319 205.44 15.4319H208.175C224.371 15.4319 246.71 33.2024 245.869 54.5856L245.153 74.7087C244.354 94.9158 227.695 110.88 207.46 110.88Z" fill="#FCC9A7"/>
<path d="M180.024 69.835C180.487 76.6407 175.355 82.5222 168.54 82.9843C161.724 83.4464 155.835 78.3211 155.372 71.5154C154.909 64.7097 160.042 58.8282 166.857 58.3661C173.672 57.946 179.562 63.0713 180.024 69.835Z" fill="#FCC9A7"/>
<path d="M258.197 69.835C258.66 76.6407 253.527 82.5222 246.712 82.9843C239.897 83.4464 234.007 78.3211 233.545 71.5154C233.082 64.7097 238.214 58.8282 245.029 58.3661C251.845 57.946 257.734 63.0713 258.197 69.835Z" fill="#FCC9A7"/>
<path d="M143.679 331.393L66.7354 739.861L110.95 739.441L223.442 332.192L143.679 331.393Z" fill="#0C0C0C"/>
<path d="M267.411 332.276L262.573 740.281H215.835L197.198 334.838L267.411 332.276Z" fill="#0C0C0C"/>
<path d="M143.674 146.756C143.674 146.756 40.353 209.016 15.2379 252.203C10.3158 260.647 16.7102 271.569 25.3764 276.065C34.9681 281.064 46.7894 277.661 52.3005 268.377L147.881 213.007C147.923 213.007 143.674 165.451 143.674 146.756Z" fill="#54585A"/>
<path d="M165.604 31.7315L168.508 62.6512H173.177L173.766 46.4351C173.766 46.4351 176.206 40.2177 187.102 26.8583C187.102 26.8583 194.211 45.0068 238.257 41.478L240.824 61.9791L245.367 61.4749L247.765 39.4615C249.364 32.0256 249.911 25.0938 248.564 17.616C245.83 2.49215 233.504 -5.86795 197.913 4.80274C194.969 5.68496 200.984 5.09681 197.913 4.80274C187.733 3.66845 160.893 3.54242 165.604 31.7315Z" fill="#2E2A33"/>
<path d="M218.009 329.335L207.997 436.293C207.618 440.326 210.353 443.98 214.349 444.737L337.191 468.179C341.692 469.061 345.984 465.868 346.488 461.331L357.72 359.666C358.141 355.717 355.575 352.063 351.662 351.138L227.601 322.403C222.973 321.311 218.472 324.588 218.009 329.335Z" fill="#AFAFAF"/>
<path d="M224.829 331.225L214.817 438.183C214.438 442.216 217.172 445.871 221.169 446.627L344.011 470.069C348.512 470.909 352.803 467.758 353.308 463.221L364.54 361.557C364.961 357.608 362.395 353.953 358.482 353.029L234.421 324.294C229.835 323.201 225.291 326.478 224.829 331.225Z" fill="#D1D1D1"/>
<path d="M288.779 440.41C300.979 444.022 307.962 456.836 304.344 469.019C300.726 481.202 287.895 488.176 275.695 484.605C263.495 480.992 256.511 468.179 260.087 455.995C263.747 443.77 276.537 436.797 288.779 440.41Z" fill="#FCC9A7"/>
<path d="M305.22 460.743C305.136 459.776 301.181 395.669 301.181 395.669L279.348 399.618L282.25 454.273L305.22 460.743Z" fill="#FCC9A7"/>
<path d="M267.397 146.756C267.397 146.756 300.463 170.408 302.567 204.1L312.915 282.87C313.504 287.491 313.757 292.113 313.589 296.776L309.592 416.59H264.2L263.358 286.903L267.397 146.756Z" fill="#54585A"/>
<path d="M193.531 118.148C189.997 120.71 172.959 130.289 172.959 130.289C172.959 130.289 173.422 154.235 209.517 152.302C241.279 150.622 241.069 131.171 241.069 131.171L219.151 118.148H193.531Z" fill="#FCC9A7"/>
<path d="M66.1496 236.659L127.907 335.216L98.6265 362.901L15.4143 265.899L66.1496 236.659Z" fill="#54585A"/>
<path d="M263.319 330.973V286.862L253.054 206.412" stroke="#424647" stroke-width="0.7693" stroke-miterlimit="10" stroke-linecap="round" stroke-linejoin="round"/>
</g>
<defs>
<clipPath id="clip0_104_145">
<rect width="366" height="794" fill="white"/>
</clipPath>
</defs>
</svg>
