<svg width="1440" height="427" viewBox="0 0 1440 427" fill="none" xmlns="http://www.w3.org/2000/svg">
<g clip-path="url(#clip0_150_58)">
<path d="M1393.5 388.063C1377.89 383.647 1354.81 381.113 1335.51 385.663C1334.74 380.824 1333.36 376.102 1331.4 371.609C1321.54 348.761 1299.65 334.188 1276.26 327.756C1210.87 309.804 1154.05 356.038 1100.16 385.356C1067.52 403.078 1028.95 418.399 991.219 410.316C966.528 404.978 942.97 386.393 933.35 362.508C949.997 359.935 965.798 353.388 974.592 339.833C985.498 323.014 975.725 292.62 951.955 298.476C926.534 304.735 921.331 337.452 928.051 358.975C912.47 360.809 896.686 359.866 881.434 356.191C808.934 339.257 762.048 277.682 717.83 222.77C697.594 197.58 676.877 170.258 649.306 152.671C638.592 145.836 623.059 139.366 608.141 138.156C605.856 132.126 602.572 126.525 598.426 121.586C577.747 97.6247 543.648 94.1303 514.138 98.7575C482.477 103.73 452.909 117.631 426.778 135.89C368.64 176.575 329.491 236.978 284.275 290.412C261.619 317.177 235.603 345.458 199.795 353.158C177.139 358.034 151.354 352.678 138.01 335.474C147.091 318.521 150.893 299.225 145.843 280.044C145.763 279.804 145.636 279.582 145.47 279.392C145.304 279.201 145.102 279.045 144.875 278.932C144.649 278.82 144.402 278.753 144.15 278.737C143.897 278.72 143.644 278.753 143.405 278.834C123.84 286.879 121.805 310.342 129.197 327.871C130.389 330.696 131.855 333.396 133.574 335.935C121.286 357.055 100.07 373.874 78.2592 382.668C53.3783 392.418 26.2446 394.921 0 389.887L0 393.497C47.4048 402.386 98.6688 389.215 129.274 349.164C131.721 345.952 133.978 342.599 136.032 339.122C148.896 355.078 170.957 360.665 191.712 358.322C223.757 354.732 249.658 334.111 270.95 311.282C295.68 284.882 317.088 255.564 339.84 227.551C383.078 174.098 434.976 119.724 504.845 104.46C538.253 97.1447 580.723 99.1415 600.845 131.34C602.179 133.504 603.353 135.763 604.358 138.098C592.147 137.887 580.685 141.535 572.947 151.826C561.427 167.186 572.947 196.255 594.605 186.905C612.787 179.033 614.88 159.545 609.619 142.476C614.427 142.84 619.187 143.682 623.827 144.991C640.55 149.887 655.104 160.351 667.795 171.871C694.003 195.986 715.008 225.631 737.472 253.126C778.483 303.372 828.941 354.713 896.832 362.566C907.671 363.857 918.622 363.909 929.472 362.719C938.688 386.182 960.192 404.767 984.038 412.102C1015.85 421.874 1050.78 412.582 1080.13 399.353C1112.56 384.991 1141.42 363.871 1173.12 347.974C1202.65 333.132 1235.17 323.014 1268.33 329.81C1295.92 335.455 1323.42 352.85 1330.81 381.65C1331.24 383.32 1331.58 385.012 1331.83 386.719C1315.95 391.385 1303.33 401.369 1300.9 419.878C1300.79 420.374 1300.89 420.89 1301.17 421.315C1301.45 421.739 1301.88 422.037 1302.37 422.143C1313.3 425.887 1325.18 420.607 1331.17 411.046C1335.03 404.646 1336.69 397.164 1335.92 389.734C1338.07 389.1 1340.24 388.582 1342.39 388.14C1361.4 384.3 1381.19 387.929 1399.35 393.9C1413.79 398.706 1427.48 405.539 1440 414.194V409.567C1425.71 400.019 1410.02 392.764 1393.5 388.063V388.063ZM135.744 332.153C131.97 326.073 129.73 319.168 129.216 312.031C128.218 300.396 132.192 288.991 142.771 283.481C146.369 300.021 143.874 317.305 135.744 332.153V332.153ZM596.256 181.471C578.707 193.337 565.939 169.663 575.04 155.34C581.587 145.03 593.837 141.9 605.894 142.169C610.56 156.127 609.35 172.62 596.256 181.471ZM931.891 358.342C930.766 354.951 929.937 351.469 929.414 347.935C927.168 332.268 932.102 313.51 946.387 304.85C964.992 293.542 979.814 313.99 974.381 331.385C968.947 348.78 948.422 355.634 932.429 358.265L931.891 358.342ZM1326.89 410.489C1324.45 413.864 1321.07 416.453 1317.18 417.936C1313.28 419.42 1309.04 419.734 1304.97 418.841C1307.64 404.441 1319.1 395.59 1332.21 390.886C1332.8 397.842 1330.92 404.783 1326.89 410.489V410.489Z" fill="#FBE8D3" fill-opacity="0.5"/>
<path d="M583.398 411.873C592.339 406.545 606.22 401.142 618.933 400.758C618.608 397.631 618.68 394.475 619.146 391.366C621.468 375.568 632.612 362.903 646.036 355.033C683.581 333.049 726.466 352.267 764.733 361.487C787.903 367.049 814.351 370.139 836.389 358.865C850.804 351.457 862.318 336.028 864.313 319.629C853.569 320.798 842.69 319.365 834.99 312.425C825.438 303.813 826.448 283.355 842.15 283.037C858.943 282.695 867.6 302.105 867.01 316.559C876.971 315.108 886.595 311.904 895.437 307.093C937.553 284.56 956.385 238.617 974.669 197.245C983.027 178.274 991.329 157.902 1005.49 142.425C1011 136.41 1019.55 129.821 1028.59 126.594C1029.01 122.478 1030.11 118.462 1031.86 114.713C1040.7 96.43 1061.25 88.6023 1080.31 86.5695C1100.75 84.3939 1121.38 88.0986 1140.61 95.0749C1183.39 110.634 1217.69 141.566 1254.58 167.171C1273.06 179.995 1293.88 193.202 1317.35 192.027C1332.2 191.287 1347.29 183.686 1352.7 170.809C1344.26 161.811 1338.7 150.484 1338.65 137.759C1338.65 137.597 1338.7 137.438 1338.77 137.293C1338.84 137.147 1338.94 137.017 1339.06 136.909C1339.18 136.802 1339.32 136.72 1339.48 136.668C1339.63 136.615 1339.79 136.594 1339.96 136.604C1353.42 138.341 1358.57 152.543 1356.9 164.634C1356.63 166.582 1356.17 168.499 1355.53 170.358C1366.65 181.406 1382.59 188.306 1397.57 190.134C1414.61 192.044 1431.84 189.09 1447.26 181.612L1447.86 183.849C1419.96 197.23 1386.01 197.58 1360.39 177.842C1358.34 176.258 1356.39 174.555 1354.54 172.741C1349.21 184.765 1336.47 191.89 1323.22 193.885C1302.76 196.981 1283.29 188.503 1266.3 177.892C1246.59 165.638 1228.46 151.024 1209.71 137.442C1174.04 111.496 1132.85 86.4178 1087.01 88.5603C1065.09 89.5744 1039.11 97.8641 1031.98 121.159C1031.52 122.722 1031.16 124.316 1030.93 125.931C1038.46 123.772 1046.17 124.129 1052.67 129.222C1062.36 136.828 1060.05 156.755 1045.08 154.557C1032.5 152.698 1027.97 140.968 1028.4 129.517C1025.48 130.541 1022.67 131.853 1020.01 133.435C1010.46 139.246 1003.18 148.147 997.224 157.394C984.987 176.69 976.893 198.549 967.537 219.318C950.466 257.266 927.722 297.461 886.953 313.601C880.451 316.201 873.673 318.051 866.751 319.116C864.936 335.186 854.696 350.274 841.136 358.779C823.043 370.118 799.857 370.159 779.467 366.835C756.986 363.32 735.596 355.024 713.312 350.436C692.547 346.141 670.711 345.272 651.291 354.99C635.131 363.069 620.981 378.415 621.182 397.49C621.192 398.596 621.262 399.701 621.393 400.8C632.008 401.055 641.483 405.147 646.067 416.212C646.213 416.503 646.238 416.839 646.137 417.148C646.036 417.457 645.817 417.714 645.527 417.862C639.379 421.996 631.137 420.698 625.837 415.767C622.385 412.441 620.111 408.081 619.359 403.347C617.921 403.312 616.491 403.351 615.085 403.434C602.668 404.211 591.003 409.746 580.739 416.463C572.587 421.839 565.241 428.346 558.92 435.789L558.151 432.921C565.419 424.632 573.937 417.531 583.398 411.873V411.873ZM1353.56 168.374C1354.89 163.98 1355.13 159.329 1354.26 154.821C1352.95 147.444 1348.59 141.037 1341.12 139.379C1341.64 150.226 1346.05 160.523 1353.56 168.374V168.374ZM1043.15 151.464C1056 155.903 1059.98 139.112 1051.96 131.747C1046.19 126.445 1038.08 126.539 1030.65 128.708C1030.08 138.133 1033.57 148.153 1043.15 151.464ZM864.525 316.804C864.659 314.516 864.595 312.221 864.332 309.944C863.122 299.862 856.95 289.057 846.659 286.063C833.252 282.144 827.462 297.277 833.718 307.155C839.973 317.032 853.831 317.872 864.179 316.846L864.525 316.804ZM628.398 414.711C630.474 416.397 632.996 417.44 635.656 417.713C638.316 417.985 640.998 417.475 643.373 416.246C639.328 407.765 630.755 404.183 621.847 403.446C622.638 407.854 624.957 411.843 628.398 414.711V414.711Z" fill="#FF7069"/>
</g>
<defs>
<clipPath id="clip0_150_58">
<rect width="1440" height="427" fill="white"/>
</clipPath>
</defs>
</svg>
