<?xml version="1.0" encoding="utf-8"?>
<!-- Generator: Adobe Illustrator 23.0.1, SVG Export Plug-In . SVG Version: 6.00 Build 0)  -->
<svg version="1.1" id="Layer_1" xmlns="http://www.w3.org/2000/svg" xmlns:xlink="http://www.w3.org/1999/xlink" x="0px" y="0px"
	 viewBox="0 0 25.8 19.5" style="enable-background:new 0 0 25.8 19.5;" xml:space="preserve">
<path d="M21.6,0.6L20,1.9l-7,5.2l-7-5.3L4.2,0.6C3.8,0.3,3.4,0.1,2.9,0c-0.5-0.1-1,0-1.5,0.3s-0.8,0.6-1.1,1C0.1,1.8,0,2.3,0,2.8v15
	c0,0.5,0.2,0.9,0.5,1.2c0.3,0.3,0.8,0.5,1.2,0.5h4.1v-10l7,5.3l7-5.3v10h4.1c0.5,0,0.9-0.2,1.2-0.5c0.3-0.3,0.5-0.8,0.5-1.2v-15
	c0-0.5-0.1-1-0.3-1.4c-0.3-0.4-0.6-0.8-1.1-1C24,0.1,23.5,0,23,0.1C22.5,0.1,22,0.3,21.6,0.6z"/>
</svg>
