<?xml version="1.0" encoding="utf-8"?>
<!-- Generator: Adobe Illustrator 23.0.1, SVG Export Plug-In . SVG Version: 6.00 Build 0)  -->
<svg version="1.1" id="Layer_1" xmlns="http://www.w3.org/2000/svg" xmlns:xlink="http://www.w3.org/1999/xlink" x="0px" y="0px"
	 viewBox="0 0 21.8 21.3" style="enable-background:new 0 0 21.8 21.3;" xml:space="preserve">
<path d="M9,12.4c1.3,1.4,2.9,2.4,4.7,3.1l2.4-1.9c0.1,0,0.2-0.1,0.2-0.1s0.2,0,0.2,0.1l4.5,2.9c0.2,0.1,0.3,0.2,0.4,0.4
	c0.1,0.2,0.2,0.4,0.2,0.6c0,0.2,0,0.4-0.1,0.6c-0.1,0.2-0.2,0.4-0.3,0.5l-2.1,2.1c-0.3,0.3-0.7,0.5-1.1,0.6
	c-0.4,0.1-0.8,0.1-1.2,0.1c-4.1-0.9-7.9-2.8-11-5.8c-3-2.9-5-6.7-5.9-10.8C0,4.3,0,3.9,0.1,3.5c0.1-0.4,0.3-0.8,0.6-1l2.2-2.1
	c0.1-0.1,0.3-0.2,0.5-0.3C3.6,0,3.8,0,4,0c0.2,0,0.4,0.1,0.5,0.2c0.2,0.1,0.3,0.2,0.4,0.4l3,4.4C8,5.1,8,5.2,8,5.2
	c0,0.1,0,0.2-0.1,0.2l-2,2.4C6.6,9.6,7.7,11.2,9,12.4z"/>
</svg>
